<svg width="400" height="200" viewBox="0 0 400 200" xmlns="http://www.w3.org/2000/svg">
  <rect width="400" height="200" rx="20" fill="#ffcc00" />
  
  <text x="170" y="90" font-family="'Inter', Arial, sans-serif" font-weight="900" font-size="55" fill="#006080">MTN</text>
  <text x="170" y="145" font-family="'Inter', Arial, sans-serif" font-weight="900" font-size="55" fill="#006080">MoMo</text>
  
  <g transform="translate(60, 40) rotate(-20 40 70)">
    <rect x="0" y="0" width="80" height="140" rx="10" fill="#222" stroke="#fff" stroke-width="3"/>
    <rect x="5" y="5" width="70" height="130" rx="6" fill="#fff" />
    
    <rect x="5" y="60" width="70" height="50" fill="#e20010" />
    
    <path d="M 5 5 h 70 v 105 q -35 -20 -70 -50 Z" fill="#006080" />
    <path d="M -15 -15 h 60 v 90 q -30 -15 -60 -40 Z" fill="#006080" stroke="#fff" stroke-width="3" />
    
    <circle cx="15" cy="30" r="16" fill="#fff" />
    <text x="0" y="34" font-family="Arial, sans-serif" font-weight="900" font-size="11" fill="#006080" transform="rotate(-15 15 30)">CFA</text>
    
    <rect x="25" y="116" width="30" height="10" rx="3" fill="#222" />
    <rect x="10" y="118" width="8" height="6" fill="#222" />
    <rect x="62" y="118" width="8" height="6" fill="#222" />
  </g>
</svg>
